<svg xmlns="http://www.w3.org/2000/svg" viewBox="0 0 100 100">
  <defs><linearGradient id="g" x1="0" y1="0" x2="1" y2="1">
    <stop offset="0" stop-color="#C2CBB8"/><stop offset="0.5" stop-color="#A2B29F"/><stop offset="1" stop-color="#6E8B7B"/>
  </linearGradient></defs>
  <rect width="100" height="100" rx="22" fill="#1E251C"/>
  <path d="M 50.00 8.00 L 53.83 8.33 L 57.60 9.01 L 61.27 10.02 L 64.83 11.37 L 68.24 13.02 L 71.46 14.98 L 74.48 17.21 L 77.28 19.70 L 79.82 22.43 L 82.10 25.37 L 84.09 28.49 L 85.77 31.77 L 87.15 35.18 L 88.20 38.68 L 88.92 42.26 L 89.32 45.87 L 89.38 49.48 L 89.10 53.08 L 88.51 56.62 L 87.59 60.07 L 86.37 63.42 L 84.85 66.62 L 83.05 69.66 L 80.99 72.51 L 78.68 75.15 L 76.15 77.56 L 73.42 79.71 L 70.52 81.60 L 67.47 83.21 L 64.30 84.53 L 61.04 85.55 L 57.71 86.26 L 54.34 86.66 L 50.96 86.75 L 47.61 86.53 L 44.30 86.00 L 41.07 85.18 L 37.94 84.07 L 34.93 82.68 L 32.08 81.03 L 29.41 79.14 L 26.93 77.01 L 24.66 74.68 L 22.63 72.16 L 20.85 69.48 L 19.32 66.66 L 18.07 63.72 L 17.09 60.69 L 16.40 57.60 L 16.00 54.48 L 15.89 51.34 L 16.06 48.22 L 16.52 45.15 L 17.26 42.14 L 18.26 39.23 L 19.52 36.43 L 21.02 33.77 L 22.76 31.28 L 24.70 28.96 L 26.84 26.84 L 29.16 24.94 L 31.62 23.26 L 34.22 21.83 L 36.93 20.64 L 39.72 19.72 L 42.57 19.05 L 45.46 18.66 L 48.35 18.53 L 51.23 18.66 L 54.07 19.06 L 56.85 19.71 L 59.55 20.61 L 62.14 21.75 L 64.60 23.12 L 66.91 24.69 L 69.06 26.47 L 71.02 28.42 L 72.79 30.53 L 74.35 32.79 L 75.69 35.17 L 76.80 37.64 L 77.67 40.20 L 78.31 42.81 L 78.69 45.46 L 78.83 48.11 L 78.73 50.75 L 78.39 53.36 L 77.81 55.91 L 77.01 58.39 L 75.98 60.76 L 74.75 63.02 L 73.33 65.15 L 71.72 67.13 L 69.95 68.94 L 68.04 70.57 L 65.99 72.01 L 63.83 73.24 L 61.58 74.27 L 59.25 75.08 L 56.88 75.68 L 54.48 76.05 L 52.06 76.19 L 49.66 76.12 L 47.29 75.82 L 44.96 75.32 L 42.71 74.60 L 40.55 73.69 L 38.49 72.59 L 36.56 71.31 L 34.76 69.87 L 33.11 68.28 L 31.62 66.55 L 30.31 64.71 L 29.17 62.76 L 28.23 60.73 L 27.49 58.64 L 26.94 56.50 L 26.59 54.34 L 26.45 52.16 L 26.50 50.00 L 26.75 47.86 L 27.20 45.77 L 27.83 43.75 L 28.64 41.80 L 29.61 39.95 L 30.75 38.20 L 32.04 36.59 L 33.45 35.10 L 34.99 33.76 L 36.63 32.58 L 38.36 31.56 L 40.17 30.71 L 42.03 30.03 L 43.94 29.54 L 45.87 29.22 L 47.80 29.08 L 49.73 29.12 L 51.63 29.34 L 53.48 29.73 L 55.28 30.28 L 57.01 30.99 L 58.66 31.85 L 60.20 32.85 L 61.64 33.98 L 62.95 35.23 L 64.14 36.58 L 65.19 38.03 L 66.09 39.55 L 66.84 41.14 L 67.44 42.78 L 67.88 44.45 L 68.16 46.14 L 68.28 47.84 L 68.25 49.52 L 68.07 51.18 L 67.73 52.81 L 67.25 54.38 L 66.63 55.89 L 65.88 57.32 L 65.01 58.67 L 64.03 59.91 L 62.95 61.06 L 61.77 62.08 L 60.52 62.99 L 59.20 63.77 L 57.83 64.42 L 56.42 64.93 L 54.98 65.31 L 53.52 65.55 L 52.06 65.66 L 50.61 65.63 L 49.19 65.46 L 47.80 65.17 L 46.46 64.76 L 45.17 64.22 L 43.95 63.58 L 42.81 62.84 L 41.75 62.00 L 40.79 61.07 L 39.92 60.08 L 39.16 59.01 L 38.51 57.90 L 37.97 56.74 L 37.55 55.55 L 37.24 54.33 L 37.04 53.11 L 36.97 51.89 L 37.00 50.68 L 37.15 49.50 L 37.40 48.34 L 37.76 47.23 L 38.21 46.17 L 38.75 45.17 L 39.37 44.23 L 40.07 43.37 L 40.84 42.58 L 41.67 41.89 L 42.55 41.27 L 43.47 40.75 L 44.42 40.33 L 45.39 40.00 L 46.38 39.76 L 47.37 39.63 L 48.35 39.58 L 49.32 39.63 L 50.27 39.76 L 51.19 39.98 L 52.07 40.28 L 52.90 40.66 L 53.68 41.11 L 54.41 41.62 L 55.07 42.19 L 55.67 42.80 L 56.20 43.47 L 56.66 44.16 L 57.04 44.89 L 57.34 45.63 L 57.57 46.39 L 57.73 47.15 L 57.81 47.91 L 57.81 48.66 L 57.75 49.39 L 57.62 50.10 L 57.43 50.78 L 57.17 51.43 L 56.86 52.03 L 56.51 52.60 L 56.10 53.11 L 55.66 53.57 L 55.19 53.98 L 54.69 54.34 L 54.17 54.63 L 53.64 54.87 L 53.10 55.05 L 52.55 55.18 L 52.01 55.24 L 51.48 55.26 L 50.97 55.22 L 50.47 55.13 L 50.00 55.00" fill="none" stroke="url(#g)" stroke-width="6" stroke-linecap="round" stroke-linejoin="round"/>
  <circle cx="34" cy="66" r="5.1" fill="#C2CBB8"/>
</svg>